# Blender v2.80 (sub 75) OBJ File: ''
# www.blender.org
mtllib base.mtl
o Cube_Cube.001
v -0.867998 -0.501231 0.867998
v -0.867998 0.501231 0.867998
v -0.867998 -0.501231 -0.867998
v -0.867998 0.501231 -0.867998
v 0.867998 -0.501231 0.867998
v 0.867998 0.501231 0.867998
v 0.867998 -0.501231 -0.867998
v 0.867998 0.501231 -0.867998
v -1.000000 -0.500000 -0.500000
v -0.911112 -0.455556 0.000000
v -1.000000 -0.500000 0.500000
v -1.000000 0.500000 0.500000
v -0.911112 0.455556 0.000000
v -1.000000 0.500000 -0.500000
v 1.000000 -0.500000 0.500000
v 0.911112 -0.455556 0.000000
v 1.000000 -0.500000 -0.500000
v 1.000000 0.500000 -0.500000
v 0.911112 0.455556 0.000000
v 1.000000 0.500000 0.500000
v 0.500000 -0.500000 -1.000000
v 0.000000 -0.455556 -0.911112
v -0.500000 -0.500000 -1.000000
v -0.500000 0.500000 -1.000000
v 0.000000 0.455556 -0.911112
v 0.500000 0.500000 -1.000000
v -0.500000 -0.500000 1.000000
v 0.000000 -0.455556 0.911112
v 0.500000 -0.500000 1.000000
v 0.500000 0.500000 1.000000
v 0.000000 0.455556 0.911112
v -0.500000 0.500000 1.000000
v -0.500000 0.500000 -0.500000
v 0.000000 0.500000 -0.500000
v 0.500000 0.500000 -0.500000
v -0.500000 0.500000 0.000000
v 0.000000 0.500000 0.000000
v 0.500000 0.500000 0.000000
v -0.500000 0.500000 0.500000
v 0.000000 0.500000 0.500000
v 0.500000 0.500000 0.500000
v 0.500000 -0.500000 -0.500000
v 0.000000 -0.500000 -0.500000
v -0.500000 -0.500000 -0.500000
v 0.500000 -0.500000 0.000000
v 0.000000 -0.500000 0.000000
v -0.500000 -0.500000 0.000000
v 0.500000 -0.500000 0.500000
v 0.000000 -0.500000 0.500000
v -0.500000 -0.500000 0.500000
v -0.500000 0.935835 -0.500000
v 0.500000 0.935835 -0.500000
v -0.500000 0.935835 0.500000
v 0.500000 0.935835 0.500000
v -0.432596 0.529377 -0.432596
v 0.432596 0.529377 -0.432596
v -0.432596 0.529377 0.432596
v 0.432596 0.529377 0.432596
v -0.432596 0.906458 -0.432596
v 0.432596 0.906458 -0.432596
v -0.432596 0.906458 0.432596
v 0.432596 0.906458 0.432596
v -0.500000 0.500000 0.500000
v -0.500000 0.935835 0.500000
v -0.432596 0.529377 0.432596
v -0.432596 0.906458 0.432596
v -0.530357 0.500000 0.469643
v -0.530357 0.935835 0.469643
v -0.462953 0.529377 0.402239
v -0.462953 0.906458 0.402239
v -0.469441 0.500000 0.530559
v -0.469441 0.935835 0.530559
v -0.402037 0.529377 0.463155
v -0.402037 0.906458 0.463155
v 0.525480 0.500000 0.474520
v 0.525480 0.935835 0.474520
v 0.458075 0.529377 0.407116
v 0.458075 0.906458 0.407116
v 0.475748 0.500000 0.524252
v 0.475748 0.935835 0.524252
v 0.408343 0.529377 0.456848
v 0.408343 0.906458 0.456848
v 0.536104 0.500000 -0.463896
v 0.536104 0.935835 -0.463896
v 0.468700 0.529377 -0.396492
v 0.468700 0.906458 -0.396492
v 0.465102 0.500000 -0.534898
v 0.465102 0.935835 -0.534898
v 0.397698 0.529377 -0.467493
v 0.397698 0.906458 -0.467493
v -0.463319 0.500000 -0.536681
v -0.463319 0.935835 -0.536681
v -0.395915 0.529377 -0.469277
v -0.395915 0.906458 -0.469277
v -0.535322 0.500000 -0.464678
v -0.535322 0.935835 -0.464678
v -0.467918 0.529377 -0.397274
v -0.467918 0.906458 -0.397274
vt 0.625000 0.187500
vt 0.375000 0.250000
vt 0.375000 0.187500
vt 0.625000 0.437500
vt 0.375000 0.500000
vt 0.375000 0.437500
vt 0.625000 0.687500
vt 0.375000 0.750000
vt 0.375000 0.687500
vt 0.625000 0.937500
vt 0.375000 1.000000
vt 0.375000 0.937500
vt 0.312500 0.687500
vt 0.312500 0.750000
vt 0.812500 0.687500
vt 0.875000 0.750000
vt 0.812500 0.750000
vt 0.875000 0.500000
vt 0.812500 0.562500
vt 0.812500 0.500000
vt 0.875000 0.625000
vt 0.812500 0.625000
vt 0.312500 0.562500
vt 0.312500 0.500000
vt 0.375000 0.625000
vt 0.312500 0.625000
vt 0.625000 0.500000
vt 0.375000 0.562500
vt 0.625000 0.562500
vt 0.625000 0.625000
vt 0.625000 0.000000
vt 0.375000 0.062500
vt 0.375000 0.000000
vt 0.625000 0.062500
vt 0.375000 0.125000
vt 0.625000 0.125000
vt 0.125000 0.625000
vt 0.187500 0.687500
vt 0.125000 0.687500
vt 0.250000 0.625000
vt 0.187500 0.625000
vt 0.250000 0.687500
vt 0.187500 0.562500
vt 0.125000 0.562500
vt 0.250000 0.562500
vt 0.125000 0.500000
vt 0.250000 0.500000
vt 0.187500 0.500000
vt 0.687500 0.687500
vt 0.750000 0.625000
vt 0.687500 0.625000
vt 0.750000 0.687500
vt 0.687500 0.562500
vt 0.750000 0.562500
vt 0.750000 0.500000
vt 0.687500 0.500000
vt 0.625000 0.750000
vt 0.750000 0.750000
vt 0.687500 0.750000
vt 0.125000 0.750000
vt 0.250000 0.750000
vt 0.187500 0.750000
vt 0.375000 0.812500
vt 0.625000 0.812500
vt 0.375000 0.875000
vt 0.625000 0.875000
vt 0.625000 0.250000
vt 0.375000 0.312500
vt 0.625000 0.312500
vt 0.375000 0.375000
vt 0.625000 0.375000
vt 0.625000 1.000000
vt 0.875000 0.687500
vt 0.875000 0.562500
vt 0.000000 0.000000
vt 0.000000 0.000000
vt 0.000000 0.000000
vt 0.000000 0.000000
vt 0.000000 0.000000
vt 0.000000 0.000000
vt 0.000000 0.000000
vt 0.000000 0.000000
vt 0.000000 0.000000
vt 0.000000 0.000000
vt 0.000000 0.000000
vt 0.000000 0.000000
vt 0.000000 0.000000
vt 0.000000 0.000000
vt 0.000000 0.000000
vt 0.000000 0.000000
vt 0.000000 0.000000
vt 0.000000 0.000000
vt 0.000000 0.000000
vt 0.000000 0.000000
vt 0.000000 0.000000
vt 0.000000 0.000000
vt 0.000000 0.000000
vt 0.000000 0.000000
vt 0.000000 0.000000
vt 0.000000 0.000000
vt 0.000000 0.000000
vt 0.000000 0.000000
vt 0.000000 0.000000
vt 0.000000 0.000000
vt 0.000000 0.000000
vt 0.000000 0.000000
vt 0.000000 0.000000
vt 0.000000 0.000000
vt 0.000000 0.000000
vt 0.000000 0.000000
vt 0.000000 0.000000
vt 0.000000 0.000000
vt 0.000000 0.000000
vt 0.000000 0.000000
vt 0.000000 0.000000
vt 0.000000 0.000000
vt 0.000000 0.000000
vt 0.000000 0.000000
vt 0.000000 0.000000
vt 0.000000 0.000000
vt 0.000000 0.000000
vt 0.000000 0.000000
vt 0.000000 0.000000
vt 0.000000 0.000000
vt 0.000000 0.000000
vt 0.000000 0.000000
vn -0.9413 0.0000 -0.3376
vn 0.3376 0.0000 -0.9413
vn 0.9413 0.0000 0.3376
vn -0.3376 0.0000 0.9413
vn -0.0033 -1.0000 0.0000
vn 0.0033 1.0000 0.0000
vn -0.1075 0.9942 0.0000
vn 0.1075 -0.9942 0.0000
vn 0.9413 0.0000 -0.3376
vn 0.9846 0.0000 0.1750
vn 0.9846 0.0000 -0.1750
vn -0.9413 0.0000 0.3376
vn -0.9846 0.0000 -0.1750
vn -0.9846 0.0000 0.1750
vn 0.0000 -0.9961 -0.0885
vn 0.0000 -1.0000 0.0000
vn 0.0000 -0.9961 0.0885
vn 0.0000 -1.0000 0.0033
vn 0.0885 -0.9961 0.0000
vn 0.0000 -0.9942 -0.1075
vn 0.0000 0.9961 -0.0885
vn 0.0000 1.0000 0.0000
vn 0.0000 0.9961 0.0885
vn 0.0000 1.0000 0.0033
vn -0.0885 0.9961 0.0000
vn 0.0000 0.9942 -0.1075
vn 0.0000 1.0000 -0.0033
vn 0.0000 0.9942 0.1075
vn 0.0000 -1.0000 -0.0033
vn 0.0000 -0.9942 0.1075
vn 0.3376 0.0000 0.9413
vn -0.1750 0.0000 0.9846
vn 0.1750 0.0000 0.9846
vn -0.3376 0.0000 -0.9413
vn 0.1750 0.0000 -0.9846
vn -0.1750 0.0000 -0.9846
vn -0.1075 -0.9942 0.0000
vn 0.0033 -1.0000 0.0000
vn -0.0885 -0.9961 0.0000
vn 0.1075 0.9942 0.0000
vn -0.0033 1.0000 0.0000
vn 0.0885 0.9961 0.0000
vn -0.7071 0.0000 0.7071
vn -0.7071 0.0000 -0.7071
vn -0.2083 -0.9556 -0.2083
vn 0.2083 0.9556 -0.2083
vn 0.0000 0.0000 1.0000
vn 0.7071 0.0000 0.7071
vn -0.2083 -0.9556 0.2083
vn 0.7071 0.0000 -0.7071
vn -0.2083 0.9556 0.2083
vn -0.2083 0.9556 -0.2083
vn 0.2083 -0.9556 -0.2083
usemtl None
s off
f 14/1/1 3/2/1 9/3/1
f 26/4/2 7/5/2 21/6/2
f 20/7/3 5/8/3 15/9/3
f 32/10/4 1/11/4 27/12/4
f 48/13/5 5/8/5 29/14/5
f 39/15/6 2/16/6 32/17/6
f 4/18/6 33/19/6 24/20/6
f 33/19/7 13/21/7 36/22/7
f 13/21/7 39/15/7 36/22/7
f 7/5/5 42/23/5 21/24/5
f 42/23/8 16/25/8 45/26/8
f 16/25/8 48/13/8 45/26/8
f 8/27/9 17/28/9 7/5/9
f 18/29/10 16/25/10 17/28/10
f 19/30/11 15/9/11 16/25/11
f 2/31/12 11/32/12 1/33/12
f 12/34/13 10/35/13 11/32/13
f 13/36/14 9/3/14 10/35/14
f 10/37/15 50/38/15 11/39/15
f 46/40/16 50/38/16 47/41/16
f 45/26/16 49/42/16 46/40/16
f 44/43/17 10/37/17 9/44/17
f 43/45/16 47/41/16 44/43/16
f 42/23/16 46/40/16 43/45/16
f 3/46/18 44/43/18 9/44/18
f 22/47/19 44/43/19 23/48/19
f 22/47/20 42/23/20 43/45/20
f 19/30/21 41/49/21 20/7/21
f 37/50/22 41/49/22 38/51/22
f 36/22/22 40/52/22 37/50/22
f 35/53/23 19/30/23 18/29/23
f 34/54/22 38/51/22 35/53/22
f 33/19/22 37/50/22 34/54/22
f 8/27/24 35/53/24 18/29/24
f 25/55/25 35/53/25 26/56/25
f 25/55/26 33/19/26 34/54/26
f 41/49/27 6/57/27 20/7/27
f 41/49/25 31/58/25 30/59/25
f 39/15/28 31/58/28 40/52/28
f 50/38/29 1/60/29 11/39/29
f 50/38/19 28/61/19 27/62/19
f 48/13/30 28/61/30 49/42/30
f 6/57/31 29/63/31 5/8/31
f 30/64/32 28/65/32 29/63/32
f 31/66/33 27/12/33 28/65/33
f 4/67/34 23/68/34 3/2/34
f 24/69/35 22/70/35 23/68/35
f 25/71/36 21/6/36 22/70/36
f 14/1/1 4/67/1 3/2/1
f 26/4/2 8/27/2 7/5/2
f 20/7/3 6/57/3 5/8/3
f 32/10/4 2/72/4 1/11/4
f 48/13/29 15/9/29 5/8/29
f 39/15/27 12/73/27 2/16/27
f 4/18/24 14/74/24 33/19/24
f 33/19/23 14/74/23 13/21/23
f 13/21/21 12/73/21 39/15/21
f 7/5/18 17/28/18 42/23/18
f 42/23/17 17/28/17 16/25/17
f 16/25/15 15/9/15 48/13/15
f 8/27/9 18/29/9 17/28/9
f 18/29/10 19/30/10 16/25/10
f 19/30/11 20/7/11 15/9/11
f 2/31/12 12/34/12 11/32/12
f 12/34/13 13/36/13 10/35/13
f 13/36/14 14/1/14 9/3/14
f 10/37/37 47/41/37 50/38/37
f 46/40/16 49/42/16 50/38/16
f 45/26/16 48/13/16 49/42/16
f 44/43/37 47/41/37 10/37/37
f 43/45/16 46/40/16 47/41/16
f 42/23/16 45/26/16 46/40/16
f 3/46/38 23/48/38 44/43/38
f 22/47/20 43/45/20 44/43/20
f 22/47/39 21/24/39 42/23/39
f 19/30/40 38/51/40 41/49/40
f 37/50/22 40/52/22 41/49/22
f 36/22/22 39/15/22 40/52/22
f 35/53/40 38/51/40 19/30/40
f 34/54/22 37/50/22 38/51/22
f 33/19/22 36/22/22 37/50/22
f 8/27/41 26/56/41 35/53/41
f 25/55/26 34/54/26 35/53/26
f 25/55/42 24/20/42 33/19/42
f 41/49/41 30/59/41 6/57/41
f 41/49/28 40/52/28 31/58/28
f 39/15/42 32/17/42 31/58/42
f 50/38/38 27/62/38 1/60/38
f 50/38/30 49/42/30 28/61/30
f 48/13/39 29/14/39 28/61/39
f 6/57/31 30/64/31 29/63/31
f 30/64/32 31/66/32 28/65/32
f 31/66/33 32/10/33 27/12/33
f 4/67/34 24/69/34 23/68/34
f 24/69/35 25/71/35 22/70/35
f 25/71/36 26/4/36 21/6/36
f 61/75/43 57/76/43 73/77/43 74/78/43
f 59/79/44 55/80/44 97/81/44 98/82/44
f 58/83/45 41/84/45 79/85/45 81/86/45
f 56/87/46 35/88/46 87/89/46 89/90/46
f 65/91/43 66/92/43 70/93/43 69/94/43
f 57/76/47 61/75/47 66/92/47 65/91/47
f 53/95/47 39/96/47 63/97/47 64/98/47
f 39/96/47 57/76/47 65/91/47 63/97/47
f 61/75/47 53/95/47 64/98/47 66/92/47
f 68/99/48 67/100/48 69/94/48 70/93/48
f 66/92/49 64/98/49 68/99/49 70/93/49
f 64/98/50 63/97/50 67/100/50 68/99/50
f 63/97/51 65/91/51 69/94/51 67/100/51
f 72/101/44 74/78/44 73/77/44 71/102/44
f 39/96/50 53/95/50 72/101/50 71/102/50
f 57/76/51 39/96/51 71/102/51 73/77/51
f 53/95/49 61/75/49 74/78/49 72/101/49
f 76/103/50 75/104/50 77/105/50 78/106/50
f 41/84/45 58/83/45 77/105/45 75/104/45
f 58/83/44 62/107/44 78/106/44 77/105/44
f 54/108/48 41/84/48 75/104/48 76/103/48
f 62/107/52 54/108/52 76/103/52 78/106/52
f 80/109/43 82/110/43 81/86/43 79/85/43
f 62/107/44 58/83/44 81/86/44 82/110/44
f 41/84/48 54/108/48 80/109/48 79/85/48
f 54/108/52 62/107/52 82/110/52 80/109/52
f 84/111/44 83/112/44 85/113/44 86/114/44
f 35/88/46 56/87/46 85/113/46 83/112/46
f 56/87/50 60/115/50 86/114/50 85/113/50
f 60/115/53 52/116/53 84/111/53 86/114/53
f 52/116/43 35/88/43 83/112/43 84/111/43
f 88/117/48 90/118/48 89/90/48 87/89/48
f 60/115/50 56/87/50 89/90/50 90/118/50
f 52/116/53 60/115/53 90/118/53 88/117/53
f 35/88/43 52/116/43 88/117/43 87/89/43
f 92/119/43 91/120/43 93/121/43 94/122/43
f 55/80/44 59/79/44 94/122/44 93/121/44
f 51/123/48 33/124/48 91/120/48 92/119/48
f 33/124/52 55/80/52 93/121/52 91/120/52
f 59/79/45 51/123/45 92/119/45 94/122/45
f 96/125/50 98/82/50 97/81/50 95/126/50
f 33/124/48 51/123/48 96/125/48 95/126/48
f 55/80/52 33/124/52 95/126/52 97/81/52
f 51/123/45 59/79/45 98/82/45 96/125/45
