# Blender v2.80 (sub 75) OBJ File: ''
# www.blender.org
mtllib nodo.mtl
o Cube.003_Cube.004
v -0.392255 -0.390866 0.392255
v -0.392255 0.390866 0.392255
v -0.392255 -0.390866 -0.392255
v -0.392255 0.390866 -0.392255
v 0.392255 -0.390866 0.392255
v 0.392255 0.390866 0.392255
v 0.392255 -0.390866 -0.392255
v 0.392255 0.390866 -0.392255
v -0.500000 -0.408723 -0.166667
v -0.500000 -0.408723 0.166667
v -0.500000 0.408723 0.166667
v -0.500000 0.408723 -0.166667
v 0.500000 -0.408723 0.166667
v 0.500000 -0.408723 -0.166667
v 0.500000 0.408723 -0.166667
v 0.500000 0.408723 0.166667
v 0.166667 -0.408723 -0.500000
v -0.166667 -0.408723 -0.500000
v -0.166667 0.408723 -0.500000
v 0.166667 0.408723 -0.500000
v -0.166667 -0.408723 0.500000
v 0.166667 -0.408723 0.500000
v 0.166667 0.408723 0.500000
v -0.166667 0.408723 0.500000
v -0.166667 0.500000 -0.166667
v 0.166667 0.500000 -0.166667
v -0.166667 0.500000 0.166667
v 0.166667 0.500000 0.166667
v 0.166667 -0.500000 -0.166667
v -0.166667 -0.500000 -0.166667
v 0.166667 -0.500000 0.166667
v -0.166667 -0.500000 0.166667
v -0.392255 -0.159385 0.392255
v -0.392255 0.159385 0.392255
v -0.392255 0.159385 -0.392255
v -0.392255 -0.159385 -0.392255
v 0.392255 0.159385 -0.392255
v 0.392255 -0.159385 -0.392255
v 0.392255 0.159385 0.392255
v 0.392255 -0.159385 0.392255
v 0.500000 0.166667 -0.166667
v 0.500000 -0.166667 -0.166667
v 0.500000 0.166667 0.166667
v 0.500000 -0.166667 0.166667
v -0.500000 0.166667 0.166667
v -0.500000 -0.166667 0.166667
v -0.500000 0.166667 -0.166667
v -0.500000 -0.166667 -0.166667
v 0.166667 0.166667 0.500000
v 0.166667 -0.166667 0.500000
v -0.166667 0.166667 0.500000
v -0.166667 -0.166667 0.500000
v -0.166667 0.166667 -0.500000
v -0.166667 -0.166667 -0.500000
v 0.166667 0.166667 -0.500000
v 0.166667 -0.166667 -0.500000
vt 0.541667 0.166667
vt 0.625000 0.166667
vt 0.625000 0.250000
vt 0.541667 0.250000
vt 0.541667 0.416667
vt 0.625000 0.416667
vt 0.625000 0.500000
vt 0.541667 0.500000
vt 0.541667 0.666667
vt 0.625000 0.666667
vt 0.625000 0.750000
vt 0.541667 0.750000
vt 0.541667 0.916667
vt 0.625000 0.916667
vt 0.625000 1.000000
vt 0.541667 1.000000
vt 0.291667 0.666667
vt 0.375000 0.666667
vt 0.375000 0.750000
vt 0.291667 0.750000
vt 0.791667 0.666667
vt 0.875000 0.666667
vt 0.875000 0.750000
vt 0.791667 0.750000
vt 0.791667 0.500000
vt 0.875000 0.500000
vt 0.875000 0.583333
vt 0.791667 0.583333
vt 0.291667 0.500000
vt 0.375000 0.500000
vt 0.375000 0.583333
vt 0.291667 0.583333
vt 0.625000 0.583333
vt 0.541667 0.583333
vt 0.541667 0.000000
vt 0.625000 0.000000
vt 0.625000 0.083333
vt 0.541667 0.083333
vt 0.125000 0.583333
vt 0.208333 0.583333
vt 0.208333 0.666667
vt 0.125000 0.666667
vt 0.125000 0.500000
vt 0.208333 0.500000
vt 0.708333 0.583333
vt 0.708333 0.666667
vt 0.708333 0.500000
vt 0.708333 0.750000
vt 0.208333 0.750000
vt 0.125000 0.750000
vt 0.625000 0.833333
vt 0.541667 0.833333
vt 0.625000 0.333333
vt 0.541667 0.333333
vt 0.375000 0.333333
vt 0.458333 0.333333
vt 0.458333 0.416667
vt 0.375000 0.416667
vt 0.375000 0.250000
vt 0.458333 0.250000
vt 0.375000 0.833333
vt 0.458333 0.833333
vt 0.458333 0.916667
vt 0.375000 0.916667
vt 0.458333 0.750000
vt 0.375000 0.083333
vt 0.458333 0.083333
vt 0.458333 0.166667
vt 0.375000 0.166667
vt 0.375000 0.000000
vt 0.458333 0.000000
vt 0.458333 0.583333
vt 0.458333 0.666667
vt 0.458333 0.500000
vt 0.458333 1.000000
vt 0.375000 1.000000
vn -0.9024 0.0000 -0.4310
vn 0.4310 0.0000 -0.9024
vn 0.9024 0.0000 0.4310
vn -0.4310 0.0000 0.9024
vn 0.2289 -0.9462 0.2289
vn -0.2289 0.9462 0.2289
vn -0.2289 0.9462 -0.2289
vn -0.2641 0.9645 0.0000
vn 0.2289 -0.9462 -0.2289
vn 0.2641 -0.9645 0.0000
vn 0.9024 0.0000 -0.4310
vn 1.0000 0.0000 0.0000
vn -0.9024 0.0000 0.4310
vn -1.0000 0.0000 0.0000
vn -0.2641 -0.9645 0.0000
vn 0.0000 -1.0000 0.0000
vn -0.2289 -0.9462 -0.2289
vn 0.0000 -0.9645 -0.2641
vn 0.2641 0.9645 0.0000
vn 0.0000 1.0000 0.0000
vn 0.2289 0.9462 -0.2289
vn 0.0000 0.9645 -0.2641
vn 0.2289 0.9462 0.2289
vn 0.0000 0.9645 0.2641
vn -0.2289 -0.9462 0.2289
vn 0.0000 -0.9645 0.2641
vn 0.4310 0.0000 0.9024
vn 0.0000 0.0000 1.0000
vn -0.4310 0.0000 -0.9024
vn 0.0000 0.0000 -1.0000
usemtl None
s off
f 47/1/1 12/2/1 4/3/1 35/4/1
f 55/5/2 20/6/2 8/7/2 37/8/2
f 43/9/3 16/10/3 6/11/3 39/12/3
f 51/13/4 24/14/4 2/15/4 34/16/4
f 31/17/5 13/18/5 5/19/5 22/20/5
f 27/21/6 11/22/6 2/23/6 24/24/6
f 19/25/7 4/26/7 12/27/7 25/28/7
f 25/28/8 12/27/8 11/22/8 27/21/8
f 17/29/9 7/30/9 14/31/9 29/32/9
f 29/32/10 14/31/10 13/18/10 31/17/10
f 37/8/11 8/7/11 15/33/11 41/34/11
f 41/34/12 15/33/12 16/10/12 43/9/12
f 34/35/13 2/36/13 11/37/13 45/38/13
f 45/38/14 11/37/14 12/2/14 47/1/14
f 9/39/15 30/40/15 32/41/15 10/42/15
f 30/40/16 29/32/16 31/17/16 32/41/16
f 3/43/17 18/44/17 30/40/17 9/39/17
f 18/44/18 17/29/18 29/32/18 30/40/18
f 15/33/19 26/45/19 28/46/19 16/10/19
f 26/45/20 25/28/20 27/21/20 28/46/20
f 8/7/21 20/47/21 26/45/21 15/33/21
f 20/47/22 19/25/22 25/28/22 26/45/22
f 16/10/23 28/46/23 23/48/23 6/11/23
f 28/46/24 27/21/24 24/24/24 23/48/24
f 10/42/25 32/41/25 21/49/25 1/50/25
f 32/41/26 31/17/26 22/20/26 21/49/26
f 39/12/27 6/11/27 23/51/27 49/52/27
f 49/52/28 23/51/28 24/14/28 51/13/28
f 35/4/29 4/3/29 19/53/29 53/54/29
f 53/54/30 19/53/30 20/6/30 55/5/30
f 18/55/30 54/56/30 56/57/30 17/58/30
f 54/56/30 53/54/30 55/5/30 56/57/30
f 3/59/29 36/60/29 54/56/29 18/55/29
f 36/60/29 35/4/29 53/54/29 54/56/29
f 22/61/28 50/62/28 52/63/28 21/64/28
f 50/62/28 49/52/28 51/13/28 52/63/28
f 5/19/27 40/65/27 50/62/27 22/61/27
f 40/65/27 39/12/27 49/52/27 50/62/27
f 10/66/14 46/67/14 48/68/14 9/69/14
f 46/67/14 45/38/14 47/1/14 48/68/14
f 1/70/13 33/71/13 46/67/13 10/66/13
f 33/71/13 34/35/13 45/38/13 46/67/13
f 14/31/12 42/72/12 44/73/12 13/18/12
f 42/72/12 41/34/12 43/9/12 44/73/12
f 7/30/11 38/74/11 42/72/11 14/31/11
f 38/74/11 37/8/11 41/34/11 42/72/11
f 21/64/4 52/63/4 33/75/4 1/76/4
f 52/63/4 51/13/4 34/16/4 33/75/4
f 13/18/3 44/73/3 40/65/3 5/19/3
f 44/73/3 43/9/3 39/12/3 40/65/3
f 17/58/2 56/57/2 38/74/2 7/30/2
f 56/57/2 55/5/2 37/8/2 38/74/2
f 9/69/1 48/68/1 36/60/1 3/59/1
f 48/68/1 47/1/1 35/4/1 36/60/1
