# Blender v2.80 (sub 75) OBJ File: ''
# www.blender.org
mtllib punta.mtl
o Cube.001_Cube.005
v -0.316641 0.063659 0.316641
v -0.316641 0.495592 0.316641
v -0.316641 0.063659 -0.316641
v -0.316641 0.495592 -0.316641
v 0.316641 0.063659 0.316641
v 0.316641 0.495592 0.316641
v 0.316641 0.063659 -0.316641
v 0.316641 0.495592 -0.316641
v -0.400000 0.006804 -0.133333
v -0.400000 0.006804 0.133333
v -0.400000 0.552447 0.133333
v -0.400000 0.552447 -0.133333
v 0.400000 0.006804 0.133333
v 0.400000 0.006804 -0.133333
v 0.400000 0.552447 -0.133333
v 0.400000 0.552447 0.133333
v 0.133333 0.006804 -0.400000
v -0.133333 0.006804 -0.400000
v -0.133333 0.552447 -0.400000
v 0.133333 0.552447 -0.400000
v -0.133333 0.006804 0.400000
v 0.133333 0.006804 0.400000
v 0.133333 0.552447 0.400000
v -0.133333 0.552447 0.400000
v -0.133333 0.892672 -0.133333
v 0.133333 0.892672 -0.133333
v -0.133333 0.892672 0.133333
v 0.133333 0.892672 0.133333
v 0.133333 -0.277656 -0.133333
v -0.133333 -0.277656 -0.133333
v 0.133333 -0.277656 0.133333
v -0.133333 -0.277656 0.133333
v -0.209332 1.053109 -0.209332
v 0.209332 1.053109 -0.209332
v -0.209332 1.053109 0.209332
v 0.209332 1.053109 0.209332
v -0.046502 1.125817 -0.046502
v 0.046502 1.125817 -0.046502
v -0.046502 1.125817 0.046502
v 0.046502 1.125817 0.046502
vt 0.375000 0.166667
vt 0.625000 0.166667
vt 0.625000 0.250000
vt 0.375000 0.250000
vt 0.375000 0.416667
vt 0.625000 0.416667
vt 0.625000 0.500000
vt 0.375000 0.500000
vt 0.375000 0.666667
vt 0.625000 0.666667
vt 0.625000 0.750000
vt 0.375000 0.750000
vt 0.375000 0.916667
vt 0.625000 0.916667
vt 0.625000 1.000000
vt 0.375000 1.000000
vt 0.291667 0.666667
vt 0.291667 0.750000
vt 0.791667 0.666667
vt 0.875000 0.666667
vt 0.875000 0.750000
vt 0.791667 0.750000
vt 0.791667 0.500000
vt 0.875000 0.500000
vt 0.875000 0.583333
vt 0.791667 0.583333
vt 0.291667 0.500000
vt 0.375000 0.583333
vt 0.291667 0.583333
vt 0.625000 0.583333
vt 0.375000 0.000000
vt 0.625000 0.000000
vt 0.625000 0.083333
vt 0.375000 0.083333
vt 0.125000 0.583333
vt 0.208333 0.583333
vt 0.208333 0.666667
vt 0.125000 0.666667
vt 0.125000 0.500000
vt 0.208333 0.500000
vt 0.708333 0.583333
vt 0.708333 0.666667
vt 0.791667 0.666667
vt 0.791667 0.583333
vt 0.708333 0.500000
vt 0.708333 0.750000
vt 0.208333 0.750000
vt 0.125000 0.750000
vt 0.625000 0.833333
vt 0.375000 0.833333
vt 0.625000 0.333333
vt 0.375000 0.333333
vt 0.708333 0.666667
vt 0.708333 0.583333
vt 0.708333 0.583333
vt 0.708333 0.666667
vt 0.791667 0.583333
vt 0.791667 0.666667
vn -0.9103 0.0000 -0.4140
vn 0.4140 0.0000 -0.9103
vn 0.9103 0.0000 0.4140
vn -0.4140 0.0000 0.9103
vn 0.5631 -0.6048 0.5631
vn -0.5921 0.5467 0.5921
vn -0.5921 0.5467 -0.5921
vn -0.7871 0.6169 0.0000
vn 0.5631 -0.6048 -0.5631
vn 0.7296 -0.6839 0.0000
vn 0.9103 0.0000 -0.4140
vn 1.0000 0.0000 0.0000
vn -0.9103 0.0000 0.4140
vn -1.0000 0.0000 0.0000
vn -0.7296 -0.6839 0.0000
vn 0.0000 -1.0000 0.0000
vn -0.5631 -0.6048 -0.5631
vn 0.0000 -0.6839 -0.7296
vn 0.7871 0.6169 0.0000
vn -0.9037 -0.4281 0.0000
vn 0.5921 0.5467 -0.5921
vn 0.0000 0.6169 -0.7871
vn 0.5921 0.5467 0.5921
vn 0.0000 0.6169 0.7871
vn -0.5631 -0.6048 0.5631
vn 0.0000 -0.6839 0.7296
vn 0.4140 0.0000 0.9103
vn 0.0000 0.0000 1.0000
vn -0.4140 0.0000 -0.9103
vn 0.0000 0.0000 -1.0000
vn 0.4077 0.9131 0.0000
vn 0.0000 -0.4281 0.9037
vn 0.0000 -0.4281 -0.9037
vn 0.9037 -0.4281 0.0000
vn 0.0000 1.0000 0.0000
vn 0.0000 0.9131 -0.4077
vn -0.4077 0.9131 0.0000
vn 0.0000 0.9131 0.4077
usemtl None
s off
f 9/1/1 12/2/1 4/3/1 3/4/1
f 17/5/2 20/6/2 8/7/2 7/8/2
f 13/9/3 16/10/3 6/11/3 5/12/3
f 21/13/4 24/14/4 2/15/4 1/16/4
f 31/17/5 13/9/5 5/12/5 22/18/5
f 27/19/6 11/20/6 2/21/6 24/22/6
f 19/23/7 4/24/7 12/25/7 25/26/7
f 25/26/8 12/25/8 11/20/8 27/19/8
f 17/27/9 7/8/9 14/28/9 29/29/9
f 29/29/10 14/28/10 13/9/10 31/17/10
f 7/8/11 8/7/11 15/30/11 14/28/11
f 14/28/12 15/30/12 16/10/12 13/9/12
f 1/31/13 2/32/13 11/33/13 10/34/13
f 10/34/14 11/33/14 12/2/14 9/1/14
f 9/35/15 30/36/15 32/37/15 10/38/15
f 30/36/16 29/29/16 31/17/16 32/37/16
f 3/39/17 18/40/17 30/36/17 9/35/17
f 18/40/18 17/27/18 29/29/18 30/36/18
f 15/30/19 26/41/19 28/42/19 16/10/19
f 25/26/20 27/19/20 35/43/20 33/44/20
f 8/7/21 20/45/21 26/41/21 15/30/21
f 20/45/22 19/23/22 25/26/22 26/41/22
f 16/10/23 28/42/23 23/46/23 6/11/23
f 28/42/24 27/19/24 24/22/24 23/46/24
f 10/38/25 32/37/25 21/47/25 1/48/25
f 32/37/26 31/17/26 22/18/26 21/47/26
f 5/12/27 6/11/27 23/49/27 22/50/27
f 22/50/28 23/49/28 24/14/28 21/13/28
f 3/4/29 4/3/29 19/51/29 18/52/29
f 18/52/30 19/51/30 20/6/30 17/5/30
f 36/53/31 34/54/31 38/55/31 40/56/31
f 27/19/32 28/42/32 36/53/32 35/43/32
f 26/41/33 25/26/33 33/44/33 34/54/33
f 28/42/34 26/41/34 34/54/34 36/53/34
f 38/55/35 37/57/35 39/58/35 40/56/35
f 34/54/36 33/44/36 37/57/36 38/55/36
f 33/44/37 35/43/37 39/58/37 37/57/37
f 35/43/38 36/53/38 40/56/38 39/58/38
